<svg xmlns="http://www.w3.org/2000/svg" viewBox="0 0 9736.29 696.59"><defs><style>.cls-1{isolation:isolate;}.cls-2{opacity:0.75;mix-blend-mode:multiply;}.cls-3,.cls-4{fill:none;stroke-miterlimit:10;stroke-width:6px;}.cls-3{stroke:#231f20;}.cls-4{stroke:#fff;}</style></defs><title>coasterSVG_1</title><g class="cls-1"><g id="Layer_2" data-name="Layer 2"><g id="fullCoasterTrack"><g class="cls-2"><path class="cls-3" d="M5.18,557s473.48,29.13,636,7.2S928.23,530.3,1030.9,448.56s414.67-380.78,628-363.84,295,268.14,313,300c0,0,41.26,59.56,77.42,80.72s114.65,19.4,137.58,10.58,376.86-197,425.93-216,181.76-99.24,357.94-105.93,221.9,158.34,220.78,186.21-16.72,138.27-119.31,166.15-176.18-29-199.6-46.83-91.44-120.43-82.52-214.1,23.42-104.81,36.8-129.35S2893.82,41.5,2934,30.35s90.32-26.76,128.23-21.18,91.44-7.81,208.52,83.63S3384.45,269,3448,348.15s147.19,157.23,281,189.56,196.25-24.53,255.35-91.43,246.43-240.86,314.45-291S4514,24.78,4688,175.31s225.15,330.07,525.07,481,659.83-205.1,659.83-205.1,150.33-157.16,244.75-158c92.31-4.8,144.26-.6,315.71,132.48s318.9,300.92,505.93,221.8,191.82-119.89,237.38-199,42-203.81,15.59-253S7141.87,81.57,7064,140.31s-56.35,245.78-22.78,315.31,85.12,143.87,202.61,193,254.17,30,296.13-28.77S7627.43,417.26,7637,374.1,7743.72,159.49,7936.74,217,8126.17,496.38,8149,555.13s40.76,148.66,149.86,87.52,297.33-206.21,297.33-206.21,142.67-100.71,256.56-104.3,883.59-4.8,883.59-4.8"/></g><path class="cls-4" d="M.18,552s473.48,29.13,636,7.2S923.23,525.3,1025.9,443.56s414.67-380.78,628-363.84,295,268.14,313,300c0,0,41.26,59.56,77.42,80.72s114.65,19.4,137.58,10.58,376.86-197,425.93-216,181.76-99.24,357.94-105.93,221.9,158.34,220.78,186.21-16.72,138.27-119.31,166.15-176.18-29-199.6-46.83-91.44-120.43-82.52-214.1,23.42-104.81,36.8-129.35S2888.82,36.5,2929,25.35s90.32-26.76,128.23-21.18,91.44-7.81,208.52,83.63S3379.45,264,3443,343.15s147.19,157.23,281,189.56,196.25-24.53,255.35-91.43,246.43-240.86,314.45-291S4509,19.78,4683,170.31s225.15,330.07,525.07,481,659.83-205.1,659.83-205.1,150.33-157.16,244.75-158c92.31-4.8,144.26-.6,315.71,132.48s318.9,300.92,505.93,221.8,191.82-119.89,237.38-199,42-203.81,15.59-253S7136.87,76.57,7059,135.31s-56.35,245.78-22.78,315.31,85.12,143.87,202.61,193,254.17,30,296.13-28.77S7622.43,412.26,7632,369.1,7738.72,154.49,7931.74,212,8121.17,491.38,8144,550.13s40.76,148.66,149.86,87.52,297.33-206.21,297.33-206.21,142.67-100.71,256.56-104.3,883.59-4.8,883.59-4.8"/></g></g></g></svg>