<svg xmlns="http://www.w3.org/2000/svg" viewBox="0 0 1925.19 605.95"><defs><style>.cls-1{isolation:isolate;}.cls-2{opacity:0.75;mix-blend-mode:multiply;}.cls-3,.cls-4{fill:none;stroke-miterlimit:10;stroke-width:6px;}.cls-3{stroke:#231f20;}.cls-4{stroke:#fff;}</style></defs><title>Asset 128</title><g class="cls-1"><g id="Layer_2" data-name="Layer 2"><g id="sectionThree"><g id="Layer_51" data-name="Layer 51"><g class="cls-2"><path class="cls-3" d="M5.13,130.88S221.9,121.52,352,298.46,503.79,546.53,512.47,555.21,535,605.51,634.77,576,917.35,453.17,969.54,400.14,1079.82,305,1073.09,209.89,948.24,20.6,903.72,10.27s-186.24,15-229.5,68.19-79.29,97.75-60.77,201.3,286.06,244.06,451.45,282c157.77,36.18,202.47,54.23,252.81-27.39s135.89-209.63,187.51-217,85.33,28.44,119,81.11,91.87,209.63,300.86,204.36"/></g><path class="cls-4" d="M.13,125.88S216.9,116.52,347,293.46,498.79,541.53,507.47,550.21,530,600.51,629.77,571,912.35,448.17,964.54,395.14,1074.82,300,1068.09,204.89,943.24,15.6,898.72,5.27s-186.24,15-229.5,68.19-79.29,97.75-60.77,201.3,286.06,244.06,451.45,282c157.77,36.18,202.47,54.23,252.81-27.39s135.89-209.63,187.51-217,85.33,28.44,119,81.11,91.87,209.63,300.86,204.36"/></g></g></g></g></svg>