<svg xmlns="http://www.w3.org/2000/svg" viewBox="0 0 1927.95 378.63"><defs><style>.cls-1{isolation:isolate;}.cls-2{opacity:0.75;mix-blend-mode:multiply;}.cls-3,.cls-4{fill:none;stroke-miterlimit:10;stroke-width:6px;}.cls-3{stroke:#231f20;}.cls-4{stroke:#fff;}</style></defs><title>Asset 123</title><g class="cls-1"><g id="Layer_2" data-name="Layer 2"><g id="sectionOne"><g id="Layer_45" data-name="Layer 45"><g class="cls-2"><path class="cls-3" d="M5,310.53,195.12,313s105.75,30.63,189.39,28.35S507.42,327.1,526.2,285.56s33-69.42,42.11-87.06,24.47-38.13,34.71-54.06S675.85,63.07,723.65,36.32s74-25,99-27.31,305.57,0,305.57,0,37.55,3.42,97.3,33.57,96.73,91.05,96.73,91.05,35.28,53.49,50.65,79.09,27.31,56.9,27.31,56.9,23.33,55.77,48.37,69.42,54.05,26.75,75.11,31.3,129.73,9.67,174.12-1.14,47.8-2.84,229.31-54.05"/></g><path class="cls-4" d="M0,305.53,190.12,308s105.75,30.63,189.39,28.35S502.42,322.1,521.2,280.56s33-69.42,42.11-87.06,24.47-38.13,34.71-54.06S670.85,58.07,718.65,31.32s74-25,99-27.31,305.57,0,305.57,0,37.55,3.42,97.3,33.57,96.73,91.05,96.73,91.05,35.28,53.49,50.65,79.09,27.31,56.9,27.31,56.9,23.33,55.77,48.37,69.42,54.05,26.75,75.11,31.3,129.73,9.67,174.12-1.14,47.8-2.84,229.31-54.05"/></g></g></g></g></svg>