<svg xmlns="http://www.w3.org/2000/svg" viewBox="0 0 1926.53 514.72"><defs><style>.cls-1{isolation:isolate;}.cls-2{opacity:0.75;mix-blend-mode:multiply;}.cls-3,.cls-4{fill:none;stroke-miterlimit:10;stroke-width:6px;}.cls-3{stroke:#231f20;}.cls-4{stroke:#fff;}</style></defs><title>Asset 124</title><g class="cls-1"><g id="Layer_2" data-name="Layer 2"><g id="sectionOne"><g id="coaster2"><g class="cls-2"><path class="cls-3" d="M6.25,380.82s95.66-43.78,130.3-62.16,60.08-29.69,82-40.29,69.28-32.52,83.41-38.88,74.23-31.81,85.54-34.64,71.4-24.74,87.66-27.57,58.67-15.55,95.43-17.67,101.09-2.83,123.71-.71,111.69,9.9,124.42,9.9,79.17,13.43,141.38-10.6,144.21-12,163.3-7.78,81.29,33.93,113.81,77.76,55.14,117.35,14.85,203.59-165.42,82-185.92,78.47-193-48.78-193-271.46S1121.28-15,1229.44,20.35,1408.28,137.69,1433,180.11s48.07,86.24,85.53,115.93,94.73,53.73,127.25,65,165,36.05,280.23,17"/></g><path class="cls-4" d="M1.25,375.82S96.91,332,131.55,313.66s60.08-29.69,82-40.29,69.28-32.52,83.41-38.88,74.23-31.81,85.54-34.64,71.4-24.74,87.66-27.57,58.67-15.55,95.43-17.67,101.09-2.83,123.71-.71,111.69,9.9,124.42,9.9,79.17,13.43,141.38-10.6,144.21-12,163.3-7.78,81.29,33.93,113.81,77.76,55.14,117.35,14.85,203.59-165.42,82-185.92,78.47-193-48.78-193-271.46S1116.28-20,1224.44,15.35,1403.28,132.69,1428,175.11s48.07,86.24,85.53,115.93,94.73,53.73,127.25,65,165,36.05,280.23,17"/></g></g></g></g></svg>