<svg xmlns="http://www.w3.org/2000/svg" viewBox="0 0 1922.07 392.34"><defs><style>.cls-1{isolation:isolate;}.cls-2{opacity:0.75;mix-blend-mode:multiply;}.cls-3,.cls-4{fill:none;stroke-miterlimit:10;stroke-width:6px;}.cls-3{stroke:#231f20;}.cls-4{stroke:#fff;}</style></defs><title>Asset 126</title><g class="cls-1"><g id="Layer_2" data-name="Layer 2"><g id="sectionTwo"><g id="Layer_47" data-name="Layer 47"><g class="cls-2"><path class="cls-3" d="M7.35,137.49,42.9,182.38s72,111.31,136.56,152.47S317,381.62,335.67,376.94s44-58,48.63-117.86,21.52-105.69,31.81-128.14S456.33,53.3,510.58,34.6s78.57-24.32,99.15-26.19,96.34,2.8,130,12.16,105.7,48.64,130,111.3,38.35,167.44,45.83,182.4,17.77,79.51,128.15,74.83,136.56-33.67,154.33-54.25,21.52-95.41,93.54-132.82c0,0,44-34.61,95.41-34.61s64.54,3.74,103.82,19.64,91.67,100.09,91.67,100.09,44,76.7,70.15,86.05,40.22,11.22,54.25,9.35,215.14,0,215.14,0"/></g><path class="cls-4" d="M2.35,132.49,37.9,177.38s72,111.31,136.56,152.47S312,376.62,330.67,371.94s44-58,48.63-117.86,21.52-105.69,31.81-128.14S451.33,48.3,505.58,29.6,584.15,5.28,604.73,3.41s96.34,2.8,130,12.16,105.7,48.64,130,111.3,38.35,167.44,45.83,182.4,17.77,79.51,128.15,74.83,136.56-33.67,154.33-54.25,21.52-95.41,93.54-132.82c0,0,44-34.61,95.41-34.61s64.54,3.74,103.82,19.64,91.67,100.09,91.67,100.09,44,76.7,70.15,86.05,40.22,11.22,54.25,9.35,215.14,0,215.14,0"/></g></g></g></g></svg>