<svg xmlns="http://www.w3.org/2000/svg" viewBox="0 0 1926.66 474.75"><defs><style>.cls-1{isolation:isolate;}.cls-2{opacity:0.75;mix-blend-mode:multiply;}.cls-3,.cls-4{fill:none;stroke-miterlimit:10;stroke-width:6px;}.cls-3{stroke:#231f20;}.cls-4{stroke:#fff;}</style></defs><title>Asset 127</title><g class="cls-1"><g id="Layer_2" data-name="Layer 2"><g id="sectionThree"><g id="coaster5"><g class="cls-2"><path class="cls-3" d="M5.3,471.77c157.46-15.63,505.48,9.16,638.38-73.82S902.73,174.62,1097,208.53c169.17,36,356.52,121,388.79,129.1,9.94-.1,45.73,15.93,90.51-.2,27.9-10,53.77-37.47,95.9-74.08C1745.12,200,1829.11,31.63,1926,7.91"/></g><path class="cls-4" d="M.3,466.77c157.46-15.63,505.48,9.16,638.38-73.82S897.73,169.62,1092,203.53c169.17,36,356.52,121,388.79,129.1,9.94-.1,45.73,15.93,90.51-.2,27.9-10,53.77-37.47,95.9-74.08C1740.12,195,1824.11,26.63,1921,2.91"/></g></g></g></g></svg>